<svg width="85" height="28" viewBox="0 0 85 28" fill="none" xmlns="http://www.w3.org/2000/svg">
<path d="M0.146484 14.1968V0.803149H4.36458V14.1968H0.146484ZM8.72052 14.1968V6.37008C8.72052 5.69029 8.50915 5.16667 8.08642 4.79921C7.68207 4.41339 7.17664 4.22047 6.57012 4.22047C6.14739 4.22047 5.77061 4.31234 5.43978 4.49606C5.10895 4.66142 4.84244 4.90026 4.64027 5.2126C4.45647 5.52493 4.36458 5.91076 4.36458 6.37008L2.73799 5.65354C2.73799 4.58793 2.96774 3.67848 3.42722 2.9252C3.88671 2.15354 4.51161 1.56562 5.30193 1.16142C6.09225 0.738845 6.98365 0.527559 7.97615 0.527559C8.9135 0.527559 9.74977 0.738845 10.4849 1.16142C11.2385 1.58399 11.8358 2.17192 12.2769 2.9252C12.7181 3.67848 12.9386 4.57874 12.9386 5.62598V14.1968H8.72052ZM17.2945 14.1968V6.37008C17.2945 5.69029 17.0832 5.16667 16.6605 4.79921C16.2561 4.41339 15.7507 4.22047 15.1441 4.22047C14.7214 4.22047 14.3446 4.31234 14.0138 4.49606C13.683 4.66142 13.4165 4.90026 13.2143 5.2126C13.0305 5.52493 12.9386 5.91076 12.9386 6.37008L10.5125 6.03937C10.5493 4.90026 10.8158 3.92651 11.312 3.11811C11.8266 2.29134 12.4975 1.65748 13.3246 1.21654C14.17 0.757218 15.1166 0.527559 16.1642 0.527559C17.1935 0.527559 18.1032 0.748031 18.8936 1.18898C19.7023 1.61155 20.3364 2.22703 20.7958 3.03543C21.2737 3.82546 21.5126 4.78084 21.5126 5.90157V14.1968H17.2945Z" fill="#09090B"/>
<path d="M30.6669 14.5C29.2885 14.5 28.0386 14.1968 26.9175 13.5906C25.8147 12.9659 24.9417 12.1207 24.2984 11.0551C23.6551 9.9895 23.3335 8.79527 23.3335 7.47244C23.3335 6.14961 23.6551 4.96457 24.2984 3.91732C24.9417 2.87008 25.8147 2.04331 26.9175 1.43701C28.0203 0.812336 29.2701 0.5 30.6669 0.5C32.0638 0.5 33.3136 0.80315 34.4163 1.40945C35.5191 2.01575 36.3921 2.85171 37.0354 3.91732C37.6787 4.96457 38.0003 6.14961 38.0003 7.47244C38.0003 8.79527 37.6787 9.9895 37.0354 11.0551C36.3921 12.1207 35.5191 12.9659 34.4163 13.5906C33.3136 14.1968 32.0638 14.5 30.6669 14.5ZM30.6669 10.6693C31.2734 10.6693 31.8064 10.5407 32.2659 10.2835C32.7254 10.0079 33.0746 9.63123 33.3136 9.15354C33.5709 8.65748 33.6995 8.09711 33.6995 7.47244C33.6995 6.84777 33.5709 6.30577 33.3136 5.84646C33.0563 5.36877 32.6978 5.00131 32.2384 4.74409C31.7973 4.4685 31.2734 4.33071 30.6669 4.33071C30.0788 4.33071 29.555 4.4685 29.0955 4.74409C28.636 5.00131 28.2776 5.36877 28.0203 5.84646C27.763 6.32415 27.6343 6.87533 27.6343 7.5C27.6343 8.1063 27.763 8.65748 28.0203 9.15354C28.2776 9.63123 28.636 10.0079 29.0955 10.2835C29.555 10.5407 30.0788 10.6693 30.6669 10.6693Z" fill="#09090B"/>
<path d="M46.5791 14.5C45.2006 14.5 43.9508 14.1968 42.8297 13.5906C41.7085 12.9843 40.8263 12.1483 40.183 11.0827C39.5398 10.0171 39.2181 8.82283 39.2181 7.5C39.2181 6.15879 39.5398 4.96457 40.183 3.91732C40.8447 2.85171 41.7361 2.01575 42.8573 1.40945C43.9784 0.80315 45.2374 0.5 46.6342 0.5C47.6819 0.5 48.6376 0.683727 49.5014 1.05118C50.3837 1.40026 51.1648 1.93307 51.8448 2.64961L49.143 5.35039C48.8306 5.00131 48.463 4.74409 48.0403 4.57874C47.6359 4.41339 47.1672 4.33071 46.6342 4.33071C46.0277 4.33071 45.4855 4.4685 45.0077 4.74409C44.5482 5.00131 44.1806 5.36877 43.9049 5.84646C43.6476 6.30577 43.5189 6.84777 43.5189 7.47244C43.5189 8.09711 43.6476 8.64829 43.9049 9.12598C44.1806 9.60367 44.5574 9.98031 45.0352 10.2559C45.5131 10.5315 46.0461 10.6693 46.6342 10.6693C47.1856 10.6693 47.6727 10.5774 48.0954 10.3937C48.5365 10.1916 48.9133 9.91601 49.2257 9.56693L51.9 12.2677C51.2015 13.0026 50.4112 13.563 49.529 13.9488C48.6468 14.3163 47.6635 14.5 46.5791 14.5Z" fill="#09090B"/>
<path d="M59.0507 14.4724C57.8193 14.4724 56.7165 14.1693 55.7424 13.563C54.7867 12.9567 54.0239 12.1299 53.4542 11.0827C52.9028 10.0354 52.6271 8.84121 52.6271 7.5C52.6271 6.15879 52.9028 4.96457 53.4542 3.91732C54.0239 2.87008 54.7867 2.04331 55.7424 1.43701C56.7165 0.830708 57.8193 0.527559 59.0507 0.527559C59.9513 0.527559 60.76 0.702099 61.4768 1.05118C62.212 1.40026 62.8093 1.88714 63.2688 2.51181C63.7283 3.11811 63.9856 3.81627 64.0408 4.6063V10.3937C63.9856 11.1837 63.7283 11.8911 63.2688 12.5157C62.8277 13.122 62.2396 13.5997 61.5044 13.9488C60.7692 14.2979 59.9513 14.4724 59.0507 14.4724ZM59.9054 10.6693C60.806 10.6693 61.532 10.3753 62.0833 9.7874C62.6347 9.1811 62.9104 8.41864 62.9104 7.5C62.9104 6.87533 62.7818 6.32415 62.5245 5.84646C62.2855 5.36877 61.9363 5.00131 61.4768 4.74409C61.0357 4.4685 60.5211 4.33071 59.9329 4.33071C59.3448 4.33071 58.821 4.4685 58.3615 4.74409C57.9204 5.00131 57.562 5.36877 57.2863 5.84646C57.029 6.32415 56.9003 6.87533 56.9003 7.5C56.9003 8.1063 57.029 8.64829 57.2863 9.12598C57.5436 9.60367 57.902 9.98031 58.3615 10.2559C58.821 10.5315 59.3356 10.6693 59.9054 10.6693ZM62.745 14.1968V10.5866L63.3791 7.33465L62.745 4.08268V0.803149H66.8804V14.1968H62.745Z" fill="#09090B"/>
<path d="M77.7229 14.4726C78.9543 14.4726 80.0571 14.1695 81.0312 13.5632C81.9869 12.9569 82.7496 12.1301 83.3194 11.0829C83.8708 10.0356 84.1465 8.8414 84.1465 7.5002C84.1465 6.15899 83.8708 4.96476 83.3194 3.91752C82.7496 2.87027 81.9869 2.0435 81.0312 1.4372C80.0571 0.830904 78.9543 0.527754 77.7229 0.527754C76.8223 0.527754 76.0136 0.702295 75.2968 1.05138C74.5616 1.40046 73.9642 1.88733 73.5048 2.51201C73.0453 3.11831 72.788 3.81647 72.7328 4.60649V10.3939C72.788 11.1839 73.0453 11.8913 73.5048 12.5159C73.9459 13.1222 74.534 13.5999 75.2692 13.949C76.0044 14.2981 76.8223 14.4726 77.7229 14.4726ZM76.8682 10.6695C75.9676 10.6695 75.2416 10.3755 74.6902 9.7876C74.1389 9.1813 73.8632 8.41883 73.8632 7.5002C73.8632 6.87552 73.9918 6.32434 74.2491 5.84665C74.4881 5.36896 74.8373 5.00151 75.2968 4.74429C75.7379 4.4687 76.2525 4.3309 76.8406 4.3309C77.4288 4.3309 77.9526 4.4687 78.4121 4.74429C78.8532 5.00151 79.2116 5.36896 79.4873 5.84665C79.7446 6.32434 79.8733 6.87552 79.8733 7.5002C79.8733 8.10649 79.7446 8.64849 79.4873 9.12618C79.23 9.60387 78.8716 9.98051 78.4121 10.2561C77.9526 10.5317 77.438 10.6695 76.8682 10.6695ZM74.0286 14.197V10.5868L73.3945 7.33484L74.0286 4.08287V0.803344H69.8932V14.197H74.0286Z" fill="#09090B"/>
<path d="M0 25.9531V20.5781H0.364631L2.44724 24.3828H2.18779L4.27039 20.5781H4.63502V25.9531H4.11612V21.5781L4.23533 21.6094L2.49632 24.7891H2.13169L0.39268 21.6094L0.511886 21.5781V25.9531H0Z" fill="#71717A"/>
<path d="M10.0409 26.0312C9.72305 26.0312 9.43322 25.9453 9.17143 25.7734C8.91432 25.6016 8.70863 25.3698 8.55437 25.0781C8.40477 24.7865 8.32998 24.4609 8.32998 24.1016C8.32998 23.7474 8.40477 23.4271 8.55437 23.1406C8.70863 22.8542 8.91432 22.6276 9.17143 22.4609C9.43322 22.2891 9.72305 22.2031 10.0409 22.2031C10.3635 22.2031 10.6533 22.2865 10.9104 22.4531C11.1676 22.6198 11.3709 22.849 11.5205 23.1406C11.6748 23.4271 11.7519 23.7474 11.7519 24.1016C11.7519 24.4661 11.6748 24.7943 11.5205 25.0859C11.3709 25.3724 11.1676 25.6016 10.9104 25.7734C10.6533 25.9453 10.3635 26.0312 10.0409 26.0312ZM10.0409 25.5C10.2747 25.5 10.4804 25.4401 10.658 25.3203C10.8403 25.2005 10.9829 25.0339 11.0857 24.8203C11.1933 24.6068 11.247 24.3672 11.247 24.1016C11.247 23.8359 11.1933 23.6016 11.0857 23.3984C10.9829 23.1901 10.8403 23.026 10.658 22.9062C10.4804 22.7865 10.2747 22.7266 10.0409 22.7266C9.81188 22.7266 9.60619 22.7865 9.42387 22.9062C9.24156 23.026 9.09898 23.1901 8.99613 23.3984C8.89329 23.6016 8.84186 23.8359 8.84186 24.1016C8.84186 24.3724 8.89329 24.6146 8.99613 24.8281C9.09898 25.0365 9.24156 25.2005 9.42387 25.3203C9.60619 25.4401 9.81188 25.5 10.0409 25.5Z" fill="#71717A"/>
<path d="M15.7331 25.9531V20.7344H16.2239V25.9531H15.7331ZM14.8986 22.7734V22.2812H17.0514V22.7734H14.8986Z" fill="#71717A"/>
<path d="M20.5324 25.9531V22.2812H21.0302V25.9531H20.5324ZM20.7778 21.4844C20.6843 21.4844 20.6048 21.4479 20.5394 21.375C20.4739 21.2969 20.4412 21.2057 20.4412 21.1016C20.4412 20.9922 20.4739 20.901 20.5394 20.8281C20.6048 20.7552 20.6843 20.7188 20.7778 20.7188C20.8806 20.7188 20.9624 20.7552 21.0232 20.8281C21.0886 20.901 21.1214 20.9922 21.1214 21.1016C21.1214 21.2057 21.0886 21.2969 21.0232 21.375C20.9624 21.4479 20.8806 21.4844 20.7778 21.4844Z" fill="#71717A"/>
<path d="M26.3236 26.0312C26.0057 26.0312 25.7159 25.9453 25.4541 25.7734C25.197 25.6016 24.9913 25.3698 24.837 25.0781C24.6874 24.7865 24.6126 24.4609 24.6126 24.1016C24.6126 23.7474 24.6874 23.4271 24.837 23.1406C24.9913 22.8542 25.197 22.6276 25.4541 22.4609C25.7159 22.2891 26.0057 22.2031 26.3236 22.2031C26.6462 22.2031 26.936 22.2865 27.1931 22.4531C27.4502 22.6198 27.6536 22.849 27.8032 23.1406C27.9574 23.4271 28.0346 23.7474 28.0346 24.1016C28.0346 24.4661 27.9574 24.7943 27.8032 25.0859C27.6536 25.3724 27.4502 25.6016 27.1931 25.7734C26.936 25.9453 26.6462 26.0312 26.3236 26.0312ZM26.3236 25.5C26.5573 25.5 26.763 25.4401 26.9407 25.3203C27.123 25.2005 27.2656 25.0339 27.3684 24.8203C27.4759 24.6068 27.5297 24.3672 27.5297 24.1016C27.5297 23.8359 27.4759 23.6016 27.3684 23.3984C27.2656 23.1901 27.123 23.026 26.9407 22.9062C26.763 22.7865 26.5573 22.7266 26.3236 22.7266C26.0945 22.7266 25.8889 22.7865 25.7065 22.9062C25.5242 23.026 25.3816 23.1901 25.2788 23.3984C25.176 23.6016 25.1245 23.8359 25.1245 24.1016C25.1245 24.3724 25.176 24.6146 25.2788 24.8281C25.3816 25.0365 25.5242 25.2005 25.7065 25.3203C25.8889 25.4401 26.0945 25.5 26.3236 25.5Z" fill="#71717A"/>
<path d="M34.0184 25.9531V23.7969C34.0184 23.474 33.932 23.2135 33.759 23.0156C33.5907 22.8125 33.3663 22.7109 33.0858 22.7109C32.8942 22.7109 32.7259 22.7578 32.581 22.8516C32.436 22.9453 32.3215 23.0729 32.2374 23.2344C32.1532 23.3958 32.1111 23.5807 32.1111 23.7891L31.8867 23.6484C31.8867 23.3724 31.9452 23.125 32.0621 22.9062C32.1789 22.6875 32.3355 22.5156 32.5319 22.3906C32.7329 22.2656 32.9619 22.2031 33.2191 22.2031C33.4715 22.2031 33.6959 22.2708 33.8922 22.4062C34.0886 22.5417 34.2405 22.724 34.348 22.9531C34.4602 23.1823 34.5163 23.4323 34.5163 23.7031V25.9531H34.0184ZM31.6203 25.9531V22.2812H32.1111V25.9531H31.6203Z" fill="#71717A"/>
<path d="M44.8577 26.0312C44.5118 26.0312 44.1892 25.9609 43.89 25.8203C43.5955 25.6797 43.3384 25.4818 43.1187 25.2266C42.899 24.9714 42.7284 24.6771 42.6068 24.3438C42.49 24.0052 42.4315 23.6432 42.4315 23.2578C42.4315 22.8724 42.49 22.513 42.6068 22.1797C42.7284 21.8411 42.8967 21.5469 43.1117 21.2969C43.3314 21.0469 43.5885 20.8516 43.883 20.7109C44.1775 20.5703 44.4954 20.5 44.8367 20.5C45.206 20.5 45.5356 20.5729 45.8254 20.7188C46.1199 20.8646 46.377 21.0651 46.5967 21.3203L46.2461 21.7109C46.0778 21.5026 45.8745 21.3411 45.6361 21.2266C45.3977 21.1068 45.1312 21.0469 44.8367 21.0469C44.5655 21.0469 44.3155 21.1016 44.0864 21.2109C43.862 21.3203 43.6633 21.4766 43.4904 21.6797C43.3221 21.8776 43.1912 22.112 43.0977 22.3828C43.0089 22.6484 42.9644 22.9401 42.9644 23.2578C42.9644 23.5755 43.0112 23.8698 43.1047 24.1406C43.1982 24.4115 43.3291 24.6484 43.4974 24.8516C43.6657 25.0495 43.8643 25.2031 44.0934 25.3125C44.3225 25.4219 44.5726 25.4766 44.8437 25.4766C45.1522 25.4766 45.4257 25.4167 45.6641 25.2969C45.9072 25.1771 46.1129 25.013 46.2812 24.8047L46.6318 25.2031C46.4168 25.4583 46.1596 25.6615 45.8605 25.8125C45.5613 25.9583 45.227 26.0312 44.8577 26.0312Z" fill="#71717A"/>
<path d="M51.5179 26.0312C51.2047 26.0312 50.9242 25.9479 50.6764 25.7812C50.4287 25.6094 50.2323 25.3802 50.0874 25.0938C49.9472 24.8073 49.877 24.4844 49.877 24.125C49.877 23.7604 49.9472 23.4349 50.0874 23.1484C50.2323 22.8568 50.4287 22.6276 50.6764 22.4609C50.9242 22.2891 51.2023 22.2031 51.5109 22.2031C51.7633 22.2031 51.9877 22.2604 52.184 22.375C52.385 22.4844 52.5463 22.6406 52.6679 22.8438C52.7941 23.0417 52.8712 23.2734 52.8993 23.5391V24.6875C52.8712 24.9531 52.7941 25.1875 52.6679 25.3906C52.5463 25.5938 52.385 25.7526 52.184 25.8672C51.9877 25.9766 51.7656 26.0312 51.5179 26.0312ZM51.595 25.5078C51.9363 25.5078 52.2097 25.3802 52.4154 25.125C52.6258 24.8698 52.731 24.5339 52.731 24.1172C52.731 23.8411 52.6819 23.599 52.5837 23.3906C52.4902 23.1771 52.357 23.013 52.184 22.8984C52.0157 22.7786 51.8171 22.7188 51.588 22.7188C51.3543 22.7188 51.1462 22.7786 50.9639 22.8984C50.7863 23.0182 50.6437 23.1849 50.5362 23.3984C50.4333 23.6068 50.3819 23.8464 50.3819 24.1172C50.3819 24.388 50.4333 24.6276 50.5362 24.8359C50.6437 25.0443 50.7886 25.2083 50.9709 25.3281C51.1532 25.4479 51.3613 25.5078 51.595 25.5078ZM52.7029 25.9531V24.9688L52.8011 24.0625L52.7029 23.1797V22.2812H53.1938V25.9531H52.7029Z" fill="#71717A"/>
<path d="M58.698 26.0312C58.4456 26.0312 58.2189 25.974 58.0179 25.8594C57.8168 25.7448 57.6509 25.5885 57.52 25.3906C57.3938 25.1875 57.3166 24.9531 57.2886 24.6875V23.5391C57.3166 23.2682 57.3961 23.0339 57.527 22.8359C57.6579 22.6328 57.8239 22.4766 58.0249 22.3672C58.2306 22.2578 58.4549 22.2031 58.698 22.2031C59.0019 22.2031 59.2754 22.2891 59.5185 22.4609C59.7615 22.6276 59.9532 22.8568 60.0934 23.1484C60.2384 23.4349 60.3108 23.7604 60.3108 24.125C60.3108 24.4844 60.2407 24.8073 60.1005 25.0938C59.9602 25.3802 59.7662 25.6094 59.5185 25.7812C59.2754 25.9479 59.0019 26.0312 58.698 26.0312ZM58.6139 25.5078C58.8476 25.5078 59.0533 25.4505 59.231 25.3359C59.4086 25.2161 59.5465 25.0521 59.6447 24.8438C59.7475 24.6302 59.7989 24.388 59.7989 24.1172C59.7989 23.8411 59.7475 23.599 59.6447 23.3906C59.5465 23.1823 59.4086 23.0182 59.231 22.8984C59.0533 22.7786 58.85 22.7188 58.6209 22.7188C58.3918 22.7188 58.1885 22.7786 58.0108 22.8984C57.8379 23.0182 57.7023 23.1823 57.6041 23.3906C57.506 23.599 57.4569 23.8411 57.4569 24.1172C57.4569 24.388 57.506 24.6302 57.6041 24.8438C57.7023 25.0521 57.8379 25.2161 58.0108 25.3359C58.1838 25.4505 58.3848 25.5078 58.6139 25.5078ZM56.9941 27.5V22.2812H57.4849V23.2188L57.3868 24.1094L57.4849 25.0078V27.5H56.9941Z" fill="#71717A"/>
<path d="M64.2962 25.9531V20.7344H64.7871V25.9531H64.2962ZM63.4618 22.7734V22.2812H65.6145V22.7734H63.4618Z" fill="#71717A"/>
<path d="M70.3997 26.0312C70.1333 26.0312 69.8949 25.9635 69.6845 25.8281C69.4741 25.6875 69.3082 25.4974 69.1866 25.2578C69.0698 25.0182 69.0113 24.737 69.0113 24.4141V22.2812H69.5092V24.3906C69.5092 24.6146 69.5443 24.8099 69.6144 24.9766C69.6892 25.1432 69.7944 25.2734 69.9299 25.3672C70.0655 25.4609 70.2221 25.5078 70.3997 25.5078C70.6756 25.5078 70.8929 25.4062 71.0519 25.2031C71.2155 25 71.2973 24.7292 71.2973 24.3906V22.2812H71.7881V24.4141C71.7881 24.7318 71.7297 25.013 71.6128 25.2578C71.496 25.5026 71.3324 25.6927 71.122 25.8281C70.9116 25.9635 70.6709 26.0312 70.3997 26.0312Z" fill="#71717A"/>
<path d="M75.5091 25.9531V22.2812H76V25.9531H75.5091ZM76 23.8125L75.7966 23.7109C75.7966 23.2474 75.8971 22.8802 76.0982 22.6094C76.3038 22.3385 76.5843 22.2031 76.9396 22.2031C77.1032 22.2031 77.2528 22.237 77.3884 22.3047C77.524 22.3672 77.6502 22.4688 77.767 22.6094L77.4445 22.9922C77.365 22.8932 77.2762 22.8229 77.178 22.7812C77.0845 22.7396 76.977 22.7188 76.8555 22.7188C76.603 22.7188 76.3973 22.8125 76.2384 23C76.0795 23.1823 76 23.4531 76 23.8125Z" fill="#71717A"/>
<path d="M82.4994 26.0312C82.1675 26.0312 81.8707 25.9479 81.6089 25.7812C81.3471 25.6146 81.1391 25.3854 80.9848 25.0938C80.8352 24.8021 80.7604 24.474 80.7604 24.1094C80.7604 23.75 80.8352 23.4271 80.9848 23.1406C81.1344 22.849 81.3377 22.6198 81.5948 22.4531C81.852 22.2865 82.1395 22.2031 82.4573 22.2031C82.7565 22.2031 83.0206 22.2786 83.2497 22.4297C83.4834 22.5807 83.6658 22.7917 83.7967 23.0625C83.9322 23.3281 84 23.6354 84 23.9844C84 24.026 83.9977 24.0755 83.993 24.1328C83.9883 24.1849 83.979 24.2474 83.9649 24.3203H81.111V23.8516H83.6985L83.5232 24.0234C83.5279 23.7526 83.4858 23.5208 83.397 23.3281C83.3128 23.1302 83.1889 22.9792 83.0253 22.875C82.8664 22.7656 82.6724 22.7109 82.4433 22.7109C82.2049 22.7109 81.9969 22.7682 81.8192 22.8828C81.6416 22.9974 81.5013 23.1589 81.3985 23.3672C81.3003 23.5703 81.2512 23.8125 81.2512 24.0938C81.2512 24.375 81.3027 24.6224 81.4055 24.8359C81.513 25.0495 81.6603 25.2161 81.8473 25.3359C82.0389 25.4557 82.2587 25.5156 82.5064 25.5156C82.7074 25.5156 82.8921 25.4766 83.0604 25.3984C83.2287 25.3151 83.3712 25.1927 83.4881 25.0312L83.8037 25.3906C83.6494 25.5938 83.4577 25.7526 83.2287 25.8672C83.0043 25.9766 82.7612 26.0312 82.4994 26.0312Z" fill="#71717A"/>
</svg>
