<svg width="28" height="28" viewBox="0 0 28 28" fill="none" xmlns="http://www.w3.org/2000/svg">
<rect width="28" height="28" rx="6" fill="black"/>
<path d="M6.36334 18.1683L15.968 7.46965C16.028 7.40278 16.1265 7.38627 16.2053 7.42954C16.2347 7.4457 16.2595 7.46938 16.2769 7.49807C16.3155 7.56175 16.3137 7.64205 16.2722 7.70391L10.1303 16.8633C10.0779 16.9414 10.0697 17.041 10.1087 17.1265C10.1527 17.2233 10.2491 17.2853 10.3554 17.2853H19.2625L17.644 18.6686H6.58655C6.47465 18.6686 6.37205 18.6063 6.32042 18.507C6.26278 18.3962 6.27988 18.2612 6.36334 18.1683Z" fill="white"/>
<path d="M10.7696 16.5504L15.0277 10.1227C15.0847 10.0367 15.1954 10.0041 15.2899 10.0457L15.2933 10.0472C15.3309 10.0637 15.3626 10.0915 15.3839 10.1266C15.4195 10.1853 15.4226 10.258 15.3921 10.3195L13.0093 15.1278C12.9834 15.1801 12.9824 15.2413 13.0065 15.2944C13.038 15.3636 13.1071 15.408 13.1832 15.408H21.7802L19.6222 16.8901H10.952C10.8904 16.8901 10.8317 16.8641 10.7902 16.8186C10.7227 16.7444 10.7142 16.634 10.7696 16.5504Z" fill="white"/>
</svg>
